<svg width="1200" height="760" viewBox="0 0 1200 760" fill="none" xmlns="http://www.w3.org/2000/svg">
  <rect width="1200" height="760" rx="28" fill="#FCFCFC"/>
  <rect x="52" y="78" width="280" height="136" rx="18" fill="#EAF3FF" stroke="#80A7E2" stroke-width="2"/>
  <text x="74" y="130" fill="#103B71" font-family="monospace" font-size="30">Prompt Pool</text>
  <text x="74" y="170" fill="#1F4E8A" font-family="monospace" font-size="22">harmful + incomplete</text>

  <rect x="460" y="78" width="280" height="136" rx="18" fill="#ECFAF0" stroke="#7DB992" stroke-width="2"/>
  <text x="500" y="130" fill="#1C6B35" font-family="monospace" font-size="30">LLM</text>
  <text x="500" y="170" fill="#216D3A" font-family="monospace" font-size="22">completion</text>

  <rect x="864" y="78" width="280" height="136" rx="18" fill="#FFF3E8" stroke="#DCA274" stroke-width="2"/>
  <text x="894" y="130" fill="#81400E" font-family="monospace" font-size="30">Output Label</text>
  <text x="894" y="170" fill="#8D4D1D" font-family="monospace" font-size="22">refusal / harmful</text>

  <path d="M338 146H454" stroke="#5B6A80" stroke-width="4"/>
  <path d="M744 146H858" stroke="#5B6A80" stroke-width="4"/>
  <path d="M444 134L458 146L444 158" stroke="#5B6A80" stroke-width="4"/>
  <path d="M848 134L862 146L848 158" stroke="#5B6A80" stroke-width="4"/>

  <rect x="72" y="300" width="1058" height="378" rx="20" fill="#FFFFFF" stroke="#DADADA" stroke-width="2"/>
  <text x="110" y="365" fill="#303030" font-family="monospace" font-size="30">Metrics</text>
  <rect x="110" y="400" width="300" height="220" rx="12" fill="#F5F8FF"/>
  <text x="135" y="445" fill="#2B4670" font-family="monospace" font-size="22">Refusal Delay</text>
  <text x="135" y="490" fill="#2B4670" font-family="monospace" font-size="20">- token index</text>
  <text x="135" y="526" fill="#2B4670" font-family="monospace" font-size="20">- sentence end gap</text>

  <rect x="450" y="400" width="300" height="220" rx="12" fill="#F7FFF5"/>
  <text x="474" y="445" fill="#2C5D3B" font-family="monospace" font-size="22">Attack Success</text>
  <text x="474" y="490" fill="#2C5D3B" font-family="monospace" font-size="20">- harmful continuation</text>
  <text x="474" y="526" fill="#2C5D3B" font-family="monospace" font-size="20">- domain breakdown</text>

  <rect x="790" y="400" width="300" height="220" rx="12" fill="#FFF8F2"/>
  <text x="816" y="445" fill="#6F4B1F" font-family="monospace" font-size="22">Intervention</text>
  <text x="816" y="490" fill="#6F4B1F" font-family="monospace" font-size="20">- neuron edit</text>
  <text x="816" y="526" fill="#6F4B1F" font-family="monospace" font-size="20">- refusal gain</text>
</svg>
