<svg width="1200" height="760" viewBox="0 0 1200 760" fill="none" xmlns="http://www.w3.org/2000/svg">
  <rect width="1200" height="760" rx="28" fill="#FDFDFD"/>
  <text x="58" y="92" fill="#1A1A1A" font-family="monospace" font-size="34">Refusal Timing Comparison</text>

  <line x1="90" y1="640" x2="1120" y2="640" stroke="#333" stroke-width="3"/>
  <line x1="90" y1="130" x2="90" y2="640" stroke="#333" stroke-width="3"/>

  <text x="42" y="156" fill="#4A4A4A" font-family="monospace" font-size="20">High</text>
  <text x="34" y="644" fill="#4A4A4A" font-family="monospace" font-size="20">0</text>
  <text x="940" y="690" fill="#4A4A4A" font-family="monospace" font-size="22">token position</text>

  <polyline points="120,600 250,560 390,500 520,450 660,400 790,360 930,340 1080,328" stroke="#2464B1" stroke-width="6" fill="none"/>
  <circle cx="1080" cy="328" r="9" fill="#2464B1"/>
  <text x="840" y="306" fill="#1D4E86" font-family="monospace" font-size="21">completion refusal</text>

  <polyline points="120,610 250,598 390,580 520,566 660,542 790,506 930,456 1080,390" stroke="#C43A3A" stroke-width="6" fill="none"/>
  <circle cx="1080" cy="390" r="9" fill="#C43A3A"/>
  <text x="790" y="420" fill="#9B2222" font-family="monospace" font-size="21">incomplete refusal delay</text>

  <rect x="660" y="162" width="430" height="116" rx="14" fill="#FFF4F4" stroke="#E1A8A8"/>
  <text x="688" y="210" fill="#962A2A" font-family="monospace" font-size="22">Refusal is often triggered later</text>
  <text x="688" y="246" fill="#962A2A" font-family="monospace" font-size="22">until sentence termination.</text>
</svg>
